<?xml version="1.0" standalone="no"?>
<!DOCTYPE svg PUBLIC "-//W3C//DTD SVG 20010904//EN"
 "http://www.w3.org/TR/2001/REC-SVG-20010904/DTD/svg10.dtd">
<svg version="1.0" xmlns="http://www.w3.org/2000/svg"
 width="754.000000pt" height="754.000000pt" viewBox="0 0 754.000000 754.000000"
 preserveAspectRatio="xMidYMid meet">
<metadata>
Created by potrace 1.11, written by Peter Selinger 2001-2013
</metadata>
<g transform="translate(0.000000,754.000000) scale(0.100000,-0.100000)"
fill="#000000" stroke="none">
<path d="M3695 7496 c-82 -50 -571 -341 -673 -401 -10 -5 -40 -23 -67 -40 -28
-16 -62 -36 -77 -45 -14 -8 -222 -132 -462 -275 -240 -143 -444 -265 -454
-270 -9 -6 -37 -22 -61 -35 -24 -14 -51 -30 -60 -35 -9 -6 -72 -43 -141 -84
-69 -41 -201 -120 -295 -176 -251 -149 -367 -218 -397 -235 -14 -8 -128 -75
-252 -149 l-226 -134 2 -1890 3 -1891 47 -27 c25 -15 66 -38 90 -52 23 -13
210 -118 413 -234 204 -115 390 -221 415 -235 25 -14 110 -62 190 -108 80 -45
165 -94 190 -108 25 -13 74 -42 110 -62 36 -20 85 -48 110 -62 25 -14 191
-108 370 -210 512 -291 721 -409 780 -441 30 -17 84 -48 119 -69 34 -21 64
-38 66 -38 2 0 42 -23 90 -50 48 -28 91 -50 96 -50 5 0 9 -5 9 -12 0 -6 3 -8
7 -5 3 4 13 1 22 -7 9 -8 39 -26 67 -40 l52 -27 123 74 c68 41 214 127 324
192 110 65 216 128 235 140 19 12 71 43 115 69 44 26 87 51 95 57 8 5 215 127
460 272 245 145 503 298 573 340 71 43 132 77 135 77 3 0 13 6 21 14 9 7 36
25 61 38 25 14 135 79 245 145 181 108 287 171 334 198 9 6 130 77 269 160
l252 149 0 1891 -1 1890 -147 83 c-81 45 -158 89 -172 97 -24 14 -397 224
-490 277 -25 14 -85 48 -134 77 -49 28 -90 51 -91 51 -2 0 -74 41 -160 90 -86
50 -161 90 -166 90 -5 0 -9 5 -9 10 0 6 -3 9 -7 8 -5 -1 -19 5 -33 14 -24 15
-207 119 -320 181 -30 17 -72 41 -92 54 -21 13 -40 23 -42 23 -3 0 -31 15 -63
34 -163 96 -627 356 -635 356 -4 0 -8 5 -8 12 0 6 -3 8 -7 5 -3 -4 -13 -1 -22
7 -9 7 -41 27 -71 43 -30 17 -136 76 -235 133 -181 103 -342 191 -347 189 -2
0 -34 -20 -73 -43z m172 -1267 c35 -22 65 -39 67 -39 3 0 320 -178 356 -199
14 -9 518 -296 624 -355 28 -16 200 -113 381 -216 182 -103 397 -226 479 -272
81 -46 148 -88 149 -93 0 -9 -38 -35 -73 -52 -8 -3 -31 -17 -50 -29 -19 -12
-159 -95 -310 -184 -151 -90 -353 -210 -448 -267 -96 -56 -178 -103 -184 -103
-5 0 -37 16 -69 35 -33 19 -62 35 -64 35 -3 0 -34 18 -70 40 -36 22 -67 40
-69 40 -2 0 -109 60 -237 133 -244 139 -493 280 -544 308 -28 15 -32 15 -75
-9 -25 -14 -62 -36 -83 -49 -21 -13 -53 -32 -70 -42 -18 -10 -129 -76 -247
-146 -118 -71 -296 -176 -395 -235 -99 -59 -195 -116 -213 -127 l-33 -20 98
-56 c54 -30 116 -65 138 -77 22 -12 108 -61 190 -108 83 -47 166 -94 185 -105
19 -11 116 -65 215 -122 99 -56 195 -110 213 -119 17 -9 32 -20 32 -25 0 -4
-93 -63 -207 -131 -115 -67 -356 -211 -536 -318 l-328 -195 228 -129 c328
-186 462 -262 513 -291 25 -14 113 -63 195 -110 139 -80 152 -85 172 -72 12 8
37 23 55 33 58 34 248 146 443 263 105 62 199 118 210 124 27 15 194 114 225
134 14 9 35 21 47 28 12 6 36 20 53 29 23 14 35 16 48 8 20 -13 594 -338 667
-379 28 -15 79 -44 115 -65 36 -21 83 -48 105 -60 110 -61 165 -95 165 -100
-1 -3 -127 -79 -281 -170 -370 -217 -481 -284 -812 -481 -87 -52 -172 -102
-190 -113 -17 -10 -115 -68 -217 -129 -102 -60 -198 -117 -215 -127 -16 -9
-121 -71 -233 -138 -224 -134 -202 -129 -297 -72 -27 16 -67 39 -88 50 -21 12
-186 105 -365 207 -180 102 -347 197 -372 211 -41 23 -323 183 -595 337 -60
35 -132 75 -160 90 -27 16 -113 64 -190 108 -170 98 -253 144 -282 159 l-23
11 0 1256 0 1257 293 174 c160 95 360 214 442 263 83 48 159 94 170 100 10 7
46 28 80 48 116 70 390 232 410 243 26 15 384 227 559 333 76 45 141 83 145
83 3 0 17 9 31 20 30 23 43 20 127 -31z"/>
</g>
</svg>
